<svg fill="currentColor" width="3em" xmlns="http://www.w3.org/2000/svg" viewBox="0 0 39.83 29.46">
	<path d="M7.4.71V.03h14.94l1.01.08v.6c-4.28.16-4 .76-4 8.68v9.84c0 6.04-2.64 10.24-11.4 10.24-4.92 0-7.96-2.64-7.96-5.8 0-2.48 1.64-4.64 4.4-4.64s4.36 1.92 4.36 4.48c0 2.96-2.96 4.88-6 3.52.88.88 2.44 1.64 4.44 1.64 2.84 0 4.2-1.76 4.2-5.12V9.39c0-7.92.28-8.52-4-8.68Z" />
	<path d="M18.34 28.95h3.21c11.32.13 18.28-5.1 18.28-14.62S32.87-.19 21.56 0l-1.21.02c0 .31.39.73.39 1.04 0 0 1.01-.39 2.47-.3.35.02.59.08.88.15 4.3.97 7.7 5.37 7.7 13.48 0 6.74-2.6 11.13-6.23 12.82-.74.35-1.52.53-2.34.69" />
</svg>
